<svg xmlns="http://www.w3.org/2000/svg" width="12.639" height="9.64"><path d="M5.263 9.625c-.63-.065-1.091-.201-1.696-.5A4.777 4.777 0 011.55 7.24c-.128-.215-.367-.72-.367-.773 0-.015.3.003.659.04.156.016.165.022.235.167.261.544.838 1.19 1.39 1.557.27.18.907.485.94.452.01-.01-.041-.113-.113-.231-.124-.203-.128-.22-.085-.303a.408.408 0 00.046-.139c0-.088-.172-.232-.364-.302-.451-.165-.727-.516-.75-.956l-.013-.232h.19c.436 0 1.576-.143 2.273-.286.234-.048.424-.083.424-.078 0 .06-.118.248-.385.608-.178.24-.337.473-.355.52-.06.159-.006.335.166.53.087.1.158.21.158.246 0 .035-.07.128-.159.21-.176.162-.289.363-.289.513v.1l.328.021a4.204 4.204 0 002.475-.649c.404-.26.381-.208.381-.866 0-.595-.06-.978-.167-1.066-.026-.023-.147-.05-.267-.06-.17-.017-.245-.04-.336-.11-.117-.09-.217-.27-.2-.359.006-.028.142-.098.33-.168.734-.276 1.432-.62 2.352-1.16l.464-.273.027.116c.015.063.02.36.01.66-.018.625-.09.996-.303 1.56-.596 1.582-2.015 2.748-3.707 3.045-.338.06-.952.084-1.275.05zM1.571 6.264C.517 6.177.003 5.9 0 5.42c0-.136.069-.307.157-.387.054-.049.057-.047.042.029-.025.13.019.237.12.289.123.064.538.063 1.13-.001 2.139-.232 4.042-.929 5.597-2.049.205-.148.393-.269.416-.268.023.002.221.085.441.185l.4.183.01.497.008.496-1.145.566c-.63.31-1.253.607-1.385.658-.463.18-1.14.385-1.536.465-.782.158-1.977.238-2.684.18zM.895 4.793C.895 2.399 2.703.354 5.1.037a5.46 5.46 0 011.523.036C7.22.188 7.913.471 8.4.8c.258.174.592.445.592.48 0 .038-1.004 1.049-1.042 1.048-.016 0-.051-.047-.078-.104-.037-.08-.114-.139-.336-.256-.322-.17-.364-.212-.5-.495a.76.76 0 01-.096-.387V.898L6.72.845C6.193.718 5.409.695 4.952.793l-.183.04.163.178.163.179-.022.267c-.021.267-.021.267.108.52.072.138.13.282.13.32 0 .117-.088.243-.3.429-.244.215-.288.297-.372.711-.088.427-.114.498-.222.602-.075.071-.135.093-.3.11-.28.03-.317.066-.304.294l.01.182-.284.082-.283.083-.26-.149c-.627-.358-.975-.644-1.115-.916l-.068-.133-.028.096c-.087.304-.13.593-.145.981l-.017.437-.116.018c-.064.01-.227.027-.364.04l-.248.021zm10.137-.377c-.029-.032-.128-.422-.234-.92a13.51 13.51 0 00-.207-.89c-.012-.013-.352.13-.755.321l-.733.347-.023.303c-.012.167-.03.332-.039.367-.015.061-.26.24-.33.24-.05 0-.072-.167-.072-.546 0-.237-.012-.359-.04-.383a5.505 5.505 0 00-.406-.237c-.202-.111-.372-.218-.379-.237-.012-.038.267-.229.336-.229.023 0 .18.058.35.128.168.07.32.128.338.128.033 0 1.273-1.058 1.273-1.087 0-.009-.28-.238-.623-.509-.343-.27-.632-.52-.642-.553-.024-.075.059-.21.156-.254.055-.025.331.03 1.277.258l1.206.29.163-.1c.435-.268.993-.25.99.03-.001.212-.287.601-.548.748-.147.083-.108-.05-.432 1.48-.205.973-.263 1.198-.325 1.272-.088.104-.225.12-.301.033zm1.246-3.088c.158-.173.179-.337.059-.457-.087-.087-.263-.105-.421-.045l-.088.033.118.098c.135.111.213.243.213.362 0 .1.033.103.119.01z" fill="#cc5918"/></svg>