<svg xmlns="http://www.w3.org/2000/svg" version="1.1" id="SVGRoot" viewBox="0 0 16 16">
  <g id="layer1">
    <path d="M1.9842 11.8057c-.3156-.085-.568-.279-.6632-.51-.075-.1817-.0904-.4255-.0325-.514.0731-.1115.1039-.077.1297.1458.0296.2546.1163.3783.3453.4928.1616.0807.22.0924.4564.0913.7174-.0033 1.3576-.3256 2.1609-1.088.3339-.317 1.1175-1.1532 1.1175-1.1927 0-.0119-.3089-.0543-.6864-.0943-1.1961-.1268-1.7223-.0635-2.0699.249-.0876.0787-.1962.216-.2413.305-.072.142-.0794.1865-.0613.3634.0123.12.0084.2017-.0096.2017-.0884 0-.1366-.0556-.181-.2085-.04-.1375-.0432-.2179-.017-.4269.0177-.1416.0533-.3077.079-.3691.0704-.1688.2902-.3882.4632-.4627.2024-.087.6907-.1447.9947-.1175.2485.0222 1.3551.2026 1.7356.2829l.214.0451.442-.5324c.243-.293.7804-.9587 1.194-1.4795.8043-1.0128.8467-1.053 1.163-1.1004.125-.0187.1516-.0133.17.0348.0128.0331-.002.0981-.0356.1555-.356.61-.6633 1.2558-.8933 1.8775-.1396.3773-.4041 1.215-.4041 1.28 0 .016.1319.0292.2931.0292.3657 0 .607-.0703.7571-.2205.0857-.0856.1144-.099.1366-.064.043.0678.0373.0822-.0772.1967-.1514.1514-.3862.2206-.8128.2397-.2948.0132-.3618.0253-.3745.068-.0707.239-.1261.6881-.128 1.0387l-.0024.4106.0918.079c.0731.063.1122.0748.192.0576.3507-.0757 1.0358-.6165 1.4666-1.1578.161-.2023.2496-.2513.2496-.1381 0 .0885-.3454.5136-.6907.85-.4325.4215-.718.5783-1.1147.612-.2555.0218-.3878-.0479-.4983-.2623-.1053-.2045-.127-.6927-.0496-1.1176l.07-.3848.0174-.0967-.5202-.0578-.5202-.0579-.0828.1066c-.4843.6231-1.4593 1.6269-1.8873 1.9428-.6302.4653-1.3248.6487-1.8856.4978zm4.988-2.742c.1346-.5025.465-1.4795.7006-2.072.0385-.0968.0562-.1616.0394-.144-.0169.0176-.3123.4064-.6565.864-.3443.4576-.719.9472-.833 1.088-.1332.1648-.1914.2595-.1632.266.1421.0327.7166.1277.7895.1305.076.003.0913-.0134.1232-.1325zm6.59.4357c-.8714-.0833-1.6033-.4548-2.2733-1.1538-.5308-.5537-.7473-.8286-1.3377-1.6983-.1821-.2682-.3486-.4876-.37-.4876-.0214 0-.1708.27-.332.6-.3933.805-.4403 1-.2413 1 .0673 0 .1363-.0522.297-.2243.2189-.2345.346-.3045.2363-.13-.313.4975-.5038.705-.656.7137-.1578.009-.273-.0091-.332-.0522-.057-.0417-.0583-.0582-.0197-.2452.05-.2424.2249-.688.4844-1.2344.106-.2233.189-.4093.1845-.4134-.0045-.0042-.0621-.0299-.1281-.0572-.1106-.0459-.12-.0599-.12-.1787 0-.1613.1035-.2454.2646-.215.0568.0108.1306.0234.164.0281.0881.0124.5344-.8565.548-1.0671.0136-.2097.1122-.3805.3839-.6648.2377-.2488.4535-.3937.6475-.4347.2101-.0444.584.152.584.3067 0 .0481-.0173.0554-.0944.04-.3248-.065-.8877.5318-1.5803 1.6753l-.1786.2949.1113.0307c.206.057 1.0212-.0894 1.678-.3011 1.1895-.3835 1.9639-1.0024 1.9588-1.5656-.004-.4556-.3328-.7453-1.0007-.8821-.419-.0859-.9335-.1084-1.4861-.0652-1.6675.1305-2.8169.6874-3.0369 1.4713-.09.3212-.0091.4622.3889.677.213.115.257.1895.112.189-.2107-.0008-.5826-.262-.703-.4938-.0756-.1453-.0778-.5436-.004-.7424.1585-.4277.9152-.9932 1.659-1.2398.5598-.1857.8505-.2248 1.68-.2263.6804-.0012.8074.007 1.114.0717.5495.116.764.204 1.059.4345.1674.1308.3586.4339.4053.6423.0464.2072.0041.4941-.105.7125-.3777.7563-1.7808 1.3732-3.3453 1.4708-.1804.0113-.328.031-.328.0437 0 .0128.1176.1727.2613.3552 1.011 1.2837 1.6664 1.8968 2.4107 2.2552.5033.2424.7821.3146 1.2182.3158.332.0008.366-.0052.5399-.0951.1202-.0622.2209-.145.2857-.2352.0887-.1231.1005-.1653.1035-.368.0026-.1795.014-.231.053-.2386.1767-.0348.175.5776-.0023.906-.1631.3018-.694.5198-1.158.4755z" id="path1563" fill="#00000" stroke-width=".032"/>
  </g>
</svg>
